# xmcd
#
# Track frame offsets: 
#        150
#        44902
#        83828
#        122850
#        169351
#        207824
#        266774
#        305625
#
# Disc length: 4785 seconds
#
# Revision: 2
# Processed by: cddbd v1.5.2PL0 Copyright (c) Steve Scherf et al.
# Submitted via: ExactAudioCopy v0.95b4
#
DISCID=7812af08
DTITLE=Kempowski, Walter - Alles umsonst - CD 1
DYEAR=2006
DGENRE=Speech
TTITLE0=CD 1 - Track  1
TTITLE1=CD 1 - Track  2
TTITLE2=CD 1 - Track  3
TTITLE3=CD 1 - Track  4
TTITLE4=CD 1 - Track  5
TTITLE5=CD 1 - Track  6
TTITLE6=CD 1 - Track  7
TTITLE7=CD 1 - Track  8
EXTD=
EXTT0=
EXTT1=
EXTT2=
EXTT3=
EXTT4=
EXTT5=
EXTT6=
EXTT7=
PLAYORDER=
